<svg xmlns="http://www.w3.org/2000/svg" xmlns:xlink="http://www.w3.org/1999/xlink" width="500" zoomAndPan="magnify" viewBox="0 0 375 374.999991" height="500" preserveAspectRatio="xMidYMid meet" version="1.0"><defs><g/><clipPath id="ecdffb54bc"><path d="M 9.78125 11.957031 L 369.023438 11.957031 L 369.023438 366.847656 L 9.78125 366.847656 Z M 9.78125 11.957031 " clip-rule="nonzero"/></clipPath><clipPath id="3f7d8bdb48"><path d="M 27.03125 11.957031 L 351.773438 11.957031 C 356.347656 11.957031 360.734375 13.773438 363.96875 17.007812 C 367.203125 20.242188 369.023438 24.632812 369.023438 29.207031 L 369.023438 349.597656 C 369.023438 354.171875 367.203125 358.558594 363.96875 361.796875 C 360.734375 365.03125 356.347656 366.847656 351.773438 366.847656 L 27.03125 366.847656 C 22.457031 366.847656 18.070312 365.03125 14.835938 361.796875 C 11.601562 358.558594 9.78125 354.171875 9.78125 349.597656 L 9.78125 29.207031 C 9.78125 24.632812 11.601562 20.242188 14.835938 17.007812 C 18.070312 13.773438 22.457031 11.957031 27.03125 11.957031 Z M 27.03125 11.957031 " clip-rule="nonzero"/></clipPath></defs><g clip-path="url(#ecdffb54bc)"><g clip-path="url(#3f7d8bdb48)"><path fill="#000000" d="M 9.78125 11.957031 L 369.023438 11.957031 L 369.023438 366.847656 L 9.78125 366.847656 Z M 9.78125 11.957031 " fill-opacity="1" fill-rule="nonzero"/></g></g><g fill="#ffffff" fill-opacity="1"><g transform="translate(7.281596, 243.46149)"><g><path d="M 13.203125 -61.421875 C 13.203125 -66.753906 14.066406 -71.753906 15.796875 -76.421875 C 17.535156 -81.097656 19.9375 -85.132812 23 -88.53125 C 26.070312 -91.9375 29.804688 -94.601562 34.203125 -96.53125 C 38.609375 -98.46875 43.414062 -99.4375 48.625 -99.4375 C 56.09375 -99.4375 62.328125 -97.832031 67.328125 -94.625 C 72.328125 -91.425781 75.757812 -87.296875 77.625 -82.234375 L 78.03125 -82.234375 C 80.03125 -87.429688 83.5625 -91.597656 88.625 -94.734375 C 93.695312 -97.867188 99.835938 -99.4375 107.046875 -99.4375 C 112.242188 -99.4375 117.039062 -98.46875 121.4375 -96.53125 C 125.84375 -94.601562 129.578125 -91.9375 132.640625 -88.53125 C 135.710938 -85.132812 138.113281 -81.097656 139.84375 -76.421875 C 141.582031 -71.753906 142.453125 -66.753906 142.453125 -61.421875 L 142.453125 0 L 121.640625 0 L 121.640625 -61.03125 C 121.640625 -65.695312 120.238281 -69.796875 117.4375 -73.328125 C 114.644531 -76.859375 110.710938 -78.625 105.640625 -78.625 C 102.441406 -78.625 99.738281 -78.054688 97.53125 -76.921875 C 95.332031 -75.796875 93.53125 -74.265625 92.125 -72.328125 C 90.726562 -70.390625 89.726562 -68.1875 89.125 -65.71875 C 88.53125 -63.257812 88.234375 -60.757812 88.234375 -58.21875 L 88.234375 0 L 67.421875 0 L 67.421875 -58.21875 C 67.421875 -60.757812 67.117188 -63.257812 66.515625 -65.71875 C 65.921875 -68.1875 64.957031 -70.351562 63.625 -72.21875 C 62.289062 -74.09375 60.488281 -75.628906 58.21875 -76.828125 C 55.957031 -78.023438 53.222656 -78.625 50.015625 -78.625 C 44.953125 -78.625 41.019531 -76.859375 38.21875 -73.328125 C 35.414062 -69.796875 34.015625 -65.695312 34.015625 -61.03125 L 34.015625 0 L 13.203125 0 Z M 13.203125 -61.421875 "/></g></g></g><g fill="#ffffff" fill-opacity="1"><g transform="translate(157.937197, 243.46149)"><g><path d="M 58.625 -79.828125 C 54.351562 -79.828125 50.347656 -78.992188 46.609375 -77.328125 C 42.878906 -75.660156 39.644531 -73.390625 36.90625 -70.515625 C 34.175781 -67.648438 32.007812 -64.316406 30.40625 -60.515625 C 28.8125 -56.722656 28.015625 -52.691406 28.015625 -48.421875 C 28.015625 -44.015625 28.8125 -39.910156 30.40625 -36.109375 C 32.007812 -32.304688 34.210938 -29.003906 37.015625 -26.203125 C 39.816406 -23.410156 43.082031 -21.175781 46.8125 -19.5 C 50.550781 -17.832031 54.554688 -17 58.828125 -17 C 62.960938 -17 66.863281 -17.832031 70.53125 -19.5 C 74.195312 -21.175781 77.429688 -23.410156 80.234375 -26.203125 C 83.035156 -29.003906 85.234375 -32.304688 86.828125 -36.109375 C 88.429688 -39.910156 89.234375 -44.015625 89.234375 -48.421875 C 89.234375 -52.691406 88.429688 -56.722656 86.828125 -60.515625 C 85.234375 -64.316406 83.066406 -67.648438 80.328125 -70.515625 C 77.597656 -73.390625 74.363281 -75.660156 70.625 -77.328125 C 66.894531 -78.992188 62.894531 -79.828125 58.625 -79.828125 Z M 6 -48.421875 C 6 -54.285156 7.195312 -60.25 9.59375 -66.3125 C 12 -72.382812 15.398438 -77.851562 19.796875 -82.71875 C 24.203125 -87.59375 29.570312 -91.597656 35.90625 -94.734375 C 42.25 -97.867188 49.351562 -99.4375 57.21875 -99.4375 C 64.019531 -99.4375 70.085938 -98.164062 75.421875 -95.625 C 80.765625 -93.09375 84.96875 -89.5625 88.03125 -85.03125 L 88.4375 -85.03125 L 88.4375 -96.84375 L 109.25 -96.84375 L 109.25 0 L 88.4375 0 L 88.4375 -11.796875 L 88.03125 -11.796875 C 84.5625 -7.265625 80.023438 -3.734375 74.421875 -1.203125 C 68.828125 1.328125 62.757812 2.59375 56.21875 2.59375 C 48.21875 2.59375 41.082031 1.09375 34.8125 -1.90625 C 28.539062 -4.90625 23.269531 -8.835938 19 -13.703125 C 14.738281 -18.578125 11.503906 -24.046875 9.296875 -30.109375 C 7.097656 -36.179688 6 -42.285156 6 -48.421875 Z M 6 -48.421875 "/></g></g></g><g fill="#ffffff" fill-opacity="1"><g transform="translate(275.380508, 243.46149)"><g><path d="M -0.40625 -96.84375 L 22.8125 -96.84375 L 44.21875 -41.421875 L 44.625 -41.421875 L 66.03125 -96.84375 L 89.234375 -96.84375 L 44.421875 2.59375 Z M -0.40625 -96.84375 "/></g></g></g></svg>