<svg xmlns="http://www.w3.org/2000/svg" xmlns:xlink="http://www.w3.org/1999/xlink" width="1920" zoomAndPan="magnify" viewBox="0 0 1440 809.999993" height="1080" preserveAspectRatio="xMidYMid meet" version="1.0"><defs><g/><clipPath id="f8eb374fd2"><path d="M 272.136719 0 L 1033.25 0 L 1033.25 760.160156 L 272.136719 760.160156 Z M 272.136719 0 " clip-rule="nonzero"/></clipPath><clipPath id="acd6b7094d"><path d="M 652.691406 0 C 442.515625 0 272.136719 170.167969 272.136719 380.082031 C 272.136719 589.992188 442.515625 760.160156 652.691406 760.160156 C 862.867188 760.160156 1033.25 589.992188 1033.25 380.082031 C 1033.25 170.167969 862.867188 0 652.691406 0 Z M 652.691406 0 " clip-rule="nonzero"/></clipPath></defs><rect x="-144" width="1728" fill="#ffffff" y="-80.999999" height="971.999992" fill-opacity="1"/><rect x="-144" width="1728" fill="#fff8f3" y="-80.999999" height="971.999992" fill-opacity="1"/><g clip-path="url(#f8eb374fd2)"><g clip-path="url(#acd6b7094d)"><path fill="#000000" d="M 272.136719 0 L 1033.25 0 L 1033.25 760.160156 L 272.136719 760.160156 Z M 272.136719 0 " fill-opacity="1" fill-rule="nonzero"/></g></g><g fill="#ff00ff" fill-opacity="1"><g transform="translate(313.234092, 468.19948)"><g><path d="M 215.699219 0 L 276.601562 0 C 273 -30 273 -42.300781 273 -64.800781 L 273 -94.199219 C 273 -136.5 255 -152.699219 228 -152.699219 C 201.601562 -152.699219 184.199219 -133.5 171.601562 -114.300781 C 166.800781 -141.898438 150.601562 -152.699219 128.398438 -152.699219 C 102.300781 -152.699219 84.898438 -133.800781 74.398438 -114.601562 C 74.699219 -123.898438 75.601562 -133.800781 77.398438 -146.699219 L 16.800781 -146.699219 C 20.398438 -119.101562 20.398438 -105 20.398438 -82.800781 L 20.398438 -63.898438 C 20.398438 -41.398438 20.398438 -27.601562 16.800781 0 L 77.398438 0 C 73.800781 -27.601562 73.800781 -41.398438 73.800781 -63.898438 L 73.800781 -102.300781 C 85.199219 -124.800781 96.300781 -136.800781 108 -136.800781 C 117.601562 -136.800781 120 -127.5 120 -112.800781 L 120 -64.800781 C 120 -42.300781 120 -30 116.398438 0 L 177 0 C 173.398438 -30 173.398438 -42.300781 173.398438 -64.800781 L 173.398438 -94.199219 C 173.398438 -97.800781 173.398438 -101.398438 173.101562 -104.699219 C 185.699219 -125.699219 196.5 -136.800781 207.601562 -136.800781 C 217.199219 -136.800781 219.300781 -127.5 219.300781 -112.800781 L 219.300781 -64.800781 C 219.300781 -42.300781 219.300781 -30 215.699219 0 Z M 215.699219 0 "/></g></g></g><g fill="#ff00ff" fill-opacity="1"><g transform="translate(606.63356, 468.19948)"><g><path d="M 187.5 0 C 183 -27.601562 183 -41.398438 183 -64.800781 L 183 -103.800781 C 182.699219 -141 154.199219 -152.699219 114.601562 -152.699219 C 77.101562 -152.699219 43.199219 -139.800781 22.199219 -126 C 27 -100.800781 53.699219 -96.601562 67.5 -115.199219 C 76.5 -127.5 82.800781 -145.199219 107.101562 -145.199219 C 121.800781 -145.199219 129.601562 -136.800781 129.601562 -119.398438 C 129.601562 -99.898438 118.5 -93 91.800781 -88.199219 C 64.199219 -83.101562 15.898438 -74.101562 15.898438 -34.800781 C 15.898438 -3.898438 45 6 69.898438 6 C 102.898438 6 121.5 -7.800781 129.898438 -28.5 C 130.199219 -18.601562 131.101562 -10.800781 133.199219 0 Z M 96.601562 -12 C 83.101562 -12 74.101562 -21.300781 74.101562 -43.800781 C 74.101562 -63.300781 83.398438 -75.898438 103.199219 -83.101562 C 115.5 -87.601562 124.5 -90.300781 129.601562 -96.601562 L 129.601562 -56.699219 C 129.601562 -31.800781 117 -12 96.601562 -12 Z M 96.601562 -12 "/></g></g></g><g fill="#ff00ff" fill-opacity="1"><g transform="translate(810.033167, 468.19948)"><g><path d="M 153.601562 -126.898438 C 157.800781 -114 177 -106.5 168.300781 -87.300781 L 133.800781 -9 L 85.800781 -118.199219 C 80.398438 -130.199219 78.300781 -136.800781 76.5 -146.699219 L 9.898438 -146.699219 C 17.101562 -136.5 21.300781 -129.601562 26.699219 -117.300781 L 77.699219 0 L 142.199219 0 C 141.300781 -8.398438 143.699219 -13.5 148.5 -24 L 181.800781 -99.300781 C 189.601562 -116.101562 189.300781 -131.699219 183.898438 -146.699219 C 165.898438 -148.5 148.5 -142.800781 153.601562 -126.898438 Z M 153.601562 -126.898438 "/></g></g></g><g fill="#00ffff" fill-opacity="1"><g transform="translate(297.651202, 458.462224)"><g><path d="M 215.699219 0 L 276.601562 0 C 273 -30 273 -42.300781 273 -64.800781 L 273 -94.199219 C 273 -136.5 255 -152.699219 228 -152.699219 C 201.601562 -152.699219 184.199219 -133.5 171.601562 -114.300781 C 166.800781 -141.898438 150.601562 -152.699219 128.398438 -152.699219 C 102.300781 -152.699219 84.898438 -133.800781 74.398438 -114.601562 C 74.699219 -123.898438 75.601562 -133.800781 77.398438 -146.699219 L 16.800781 -146.699219 C 20.398438 -119.101562 20.398438 -105 20.398438 -82.800781 L 20.398438 -63.898438 C 20.398438 -41.398438 20.398438 -27.601562 16.800781 0 L 77.398438 0 C 73.800781 -27.601562 73.800781 -41.398438 73.800781 -63.898438 L 73.800781 -102.300781 C 85.199219 -124.800781 96.300781 -136.800781 108 -136.800781 C 117.601562 -136.800781 120 -127.5 120 -112.800781 L 120 -64.800781 C 120 -42.300781 120 -30 116.398438 0 L 177 0 C 173.398438 -30 173.398438 -42.300781 173.398438 -64.800781 L 173.398438 -94.199219 C 173.398438 -97.800781 173.398438 -101.398438 173.101562 -104.699219 C 185.699219 -125.699219 196.5 -136.800781 207.601562 -136.800781 C 217.199219 -136.800781 219.300781 -127.5 219.300781 -112.800781 L 219.300781 -64.800781 C 219.300781 -42.300781 219.300781 -30 215.699219 0 Z M 215.699219 0 "/></g></g></g><g fill="#00ffff" fill-opacity="1"><g transform="translate(591.05067, 458.462224)"><g><path d="M 187.5 0 C 183 -27.601562 183 -41.398438 183 -64.800781 L 183 -103.800781 C 182.699219 -141 154.199219 -152.699219 114.601562 -152.699219 C 77.101562 -152.699219 43.199219 -139.800781 22.199219 -126 C 27 -100.800781 53.699219 -96.601562 67.5 -115.199219 C 76.5 -127.5 82.800781 -145.199219 107.101562 -145.199219 C 121.800781 -145.199219 129.601562 -136.800781 129.601562 -119.398438 C 129.601562 -99.898438 118.5 -93 91.800781 -88.199219 C 64.199219 -83.101562 15.898438 -74.101562 15.898438 -34.800781 C 15.898438 -3.898438 45 6 69.898438 6 C 102.898438 6 121.5 -7.800781 129.898438 -28.5 C 130.199219 -18.601562 131.101562 -10.800781 133.199219 0 Z M 96.601562 -12 C 83.101562 -12 74.101562 -21.300781 74.101562 -43.800781 C 74.101562 -63.300781 83.398438 -75.898438 103.199219 -83.101562 C 115.5 -87.601562 124.5 -90.300781 129.601562 -96.601562 L 129.601562 -56.699219 C 129.601562 -31.800781 117 -12 96.601562 -12 Z M 96.601562 -12 "/></g></g></g><g fill="#00ffff" fill-opacity="1"><g transform="translate(794.450277, 458.462224)"><g><path d="M 153.601562 -126.898438 C 157.800781 -114 177 -106.5 168.300781 -87.300781 L 133.800781 -9 L 85.800781 -118.199219 C 80.398438 -130.199219 78.300781 -136.800781 76.5 -146.699219 L 9.898438 -146.699219 C 17.101562 -136.5 21.300781 -129.601562 26.699219 -117.300781 L 77.699219 0 L 142.199219 0 C 141.300781 -8.398438 143.699219 -13.5 148.5 -24 L 181.800781 -99.300781 C 189.601562 -116.101562 189.300781 -131.699219 183.898438 -146.699219 C 165.898438 -148.5 148.5 -142.800781 153.601562 -126.898438 Z M 153.601562 -126.898438 "/></g></g></g><g fill="#ffffff" fill-opacity="1"><g transform="translate(305.442646, 463.330852)"><g><path d="M 215.699219 0 L 276.601562 0 C 273 -30 273 -42.300781 273 -64.800781 L 273 -94.199219 C 273 -136.5 255 -152.699219 228 -152.699219 C 201.601562 -152.699219 184.199219 -133.5 171.601562 -114.300781 C 166.800781 -141.898438 150.601562 -152.699219 128.398438 -152.699219 C 102.300781 -152.699219 84.898438 -133.800781 74.398438 -114.601562 C 74.699219 -123.898438 75.601562 -133.800781 77.398438 -146.699219 L 16.800781 -146.699219 C 20.398438 -119.101562 20.398438 -105 20.398438 -82.800781 L 20.398438 -63.898438 C 20.398438 -41.398438 20.398438 -27.601562 16.800781 0 L 77.398438 0 C 73.800781 -27.601562 73.800781 -41.398438 73.800781 -63.898438 L 73.800781 -102.300781 C 85.199219 -124.800781 96.300781 -136.800781 108 -136.800781 C 117.601562 -136.800781 120 -127.5 120 -112.800781 L 120 -64.800781 C 120 -42.300781 120 -30 116.398438 0 L 177 0 C 173.398438 -30 173.398438 -42.300781 173.398438 -64.800781 L 173.398438 -94.199219 C 173.398438 -97.800781 173.398438 -101.398438 173.101562 -104.699219 C 185.699219 -125.699219 196.5 -136.800781 207.601562 -136.800781 C 217.199219 -136.800781 219.300781 -127.5 219.300781 -112.800781 L 219.300781 -64.800781 C 219.300781 -42.300781 219.300781 -30 215.699219 0 Z M 215.699219 0 "/></g></g></g><g fill="#ffffff" fill-opacity="1"><g transform="translate(598.842114, 463.330852)"><g><path d="M 187.5 0 C 183 -27.601562 183 -41.398438 183 -64.800781 L 183 -103.800781 C 182.699219 -141 154.199219 -152.699219 114.601562 -152.699219 C 77.101562 -152.699219 43.199219 -139.800781 22.199219 -126 C 27 -100.800781 53.699219 -96.601562 67.5 -115.199219 C 76.5 -127.5 82.800781 -145.199219 107.101562 -145.199219 C 121.800781 -145.199219 129.601562 -136.800781 129.601562 -119.398438 C 129.601562 -99.898438 118.5 -93 91.800781 -88.199219 C 64.199219 -83.101562 15.898438 -74.101562 15.898438 -34.800781 C 15.898438 -3.898438 45 6 69.898438 6 C 102.898438 6 121.5 -7.800781 129.898438 -28.5 C 130.199219 -18.601562 131.101562 -10.800781 133.199219 0 Z M 96.601562 -12 C 83.101562 -12 74.101562 -21.300781 74.101562 -43.800781 C 74.101562 -63.300781 83.398438 -75.898438 103.199219 -83.101562 C 115.5 -87.601562 124.5 -90.300781 129.601562 -96.601562 L 129.601562 -56.699219 C 129.601562 -31.800781 117 -12 96.601562 -12 Z M 96.601562 -12 "/></g></g></g><g fill="#ffffff" fill-opacity="1"><g transform="translate(802.241721, 463.330852)"><g><path d="M 153.601562 -126.898438 C 157.800781 -114 177 -106.5 168.300781 -87.300781 L 133.800781 -9 L 85.800781 -118.199219 C 80.398438 -130.199219 78.300781 -136.800781 76.5 -146.699219 L 9.898438 -146.699219 C 17.101562 -136.5 21.300781 -129.601562 26.699219 -117.300781 L 77.699219 0 L 142.199219 0 C 141.300781 -8.398438 143.699219 -13.5 148.5 -24 L 181.800781 -99.300781 C 189.601562 -116.101562 189.300781 -131.699219 183.898438 -146.699219 C 165.898438 -148.5 148.5 -142.800781 153.601562 -126.898438 Z M 153.601562 -126.898438 "/></g></g></g></svg>